<?xml version="1.0" standalone="no"?>
<!DOCTYPE svg PUBLIC "-//W3C//DTD SVG 1.1//EN" "http://www.w3.org/Graphics/SVG/1.1/DTD/svg11.dtd">
<svg width="100%" height="100%" viewBox="0 0 500 93" version="1.1" xmlns="http://www.w3.org/2000/svg" xmlns:xlink="http://www.w3.org/1999/xlink" xml:space="preserve" style="fill-rule:evenodd;clip-rule:evenodd;stroke-linejoin:round;stroke-miterlimit:1.41421;">
    <g id="relaud.io" transform="matrix(1,0,0,1,92.5,17.0317)">
        <path d="M0,20.149L11.194,20.149L11.194,25.97L11.343,25.97C12.537,23.731 13.955,22.052 15.597,20.932C17.238,19.813 19.303,19.253 21.791,19.253C22.437,19.253 23.084,19.278 23.731,19.328C24.378,19.378 24.975,19.477 25.522,19.626L25.522,29.85C24.726,29.601 23.942,29.415 23.171,29.29C22.4,29.166 21.592,29.104 20.746,29.104C18.607,29.104 16.915,29.402 15.671,29.999C14.428,30.596 13.47,31.43 12.798,32.499C12.127,33.569 11.691,34.85 11.492,36.342C11.293,37.835 11.194,39.477 11.194,41.268L11.194,56.417L0,56.417L0,20.149ZM64.689,50.148C62.898,52.437 60.635,54.203 57.898,55.446C55.162,56.69 52.326,57.312 49.391,57.312C46.605,57.312 43.981,56.864 41.518,55.969C39.056,55.073 36.916,53.792 35.1,52.126C33.285,50.459 31.854,48.457 30.81,46.118C29.765,43.78 29.242,41.168 29.242,38.283C29.242,35.397 29.765,32.785 30.81,30.447C31.854,28.109 33.285,26.106 35.1,24.44C36.916,22.773 39.056,21.492 41.518,20.597C43.981,19.701 46.605,19.253 49.391,19.253C51.978,19.253 54.329,19.701 56.443,20.597C58.558,21.492 60.349,22.773 61.816,24.44C63.284,26.106 64.416,28.109 65.212,30.447C66.008,32.785 66.406,35.397 66.406,38.283L66.406,41.79L40.436,41.79C40.884,43.929 41.854,45.633 43.347,46.902C44.839,48.171 46.68,48.805 48.869,48.805C50.71,48.805 52.264,48.394 53.533,47.574C54.802,46.753 55.908,45.695 56.854,44.402L64.689,50.148ZM55.212,34.178C55.262,32.288 54.64,30.671 53.346,29.328C52.053,27.984 50.386,27.313 48.346,27.313C47.103,27.313 46.008,27.512 45.063,27.91C44.118,28.308 43.309,28.818 42.638,29.44C41.966,30.061 41.444,30.783 41.07,31.604C40.697,32.425 40.486,33.283 40.436,34.178L55.212,34.178ZM74.678,0L85.872,0L85.872,56.417L74.678,56.417L74.678,0ZM118.025,51.864L117.876,51.864C116.632,53.805 114.978,55.198 112.913,56.043C110.849,56.889 108.672,57.312 106.383,57.312C104.692,57.312 103.063,57.076 101.496,56.603C99.928,56.131 98.548,55.422 97.354,54.476C96.16,53.531 95.215,52.362 94.518,50.969C93.822,49.576 93.473,47.959 93.473,46.118C93.473,44.029 93.859,42.263 94.63,40.82C95.401,39.377 96.446,38.183 97.764,37.238C99.083,36.293 100.588,35.559 102.279,35.037C103.971,34.514 105.724,34.129 107.54,33.88C109.356,33.631 111.172,33.482 112.988,33.432C114.804,33.382 116.483,33.357 118.025,33.357C118.025,31.367 117.316,29.788 115.898,28.619C114.48,27.45 112.801,26.865 110.861,26.865C109.02,26.865 107.341,27.251 105.824,28.022C104.306,28.793 102.951,29.85 101.757,31.193L95.787,25.074C97.876,23.134 100.314,21.679 103.1,20.708C105.886,19.738 108.771,19.253 111.756,19.253C115.04,19.253 117.739,19.664 119.853,20.485C121.968,21.305 123.659,22.512 124.928,24.104C126.196,25.696 127.079,27.649 127.577,29.962C128.075,32.275 128.323,34.949 128.323,37.984L128.323,56.417L118.025,56.417L118.025,51.864ZM115.264,40.521C114.418,40.521 113.361,40.559 112.092,40.633C110.824,40.708 109.605,40.919 108.436,41.268C107.267,41.616 106.272,42.138 105.451,42.835C104.63,43.531 104.219,44.501 104.219,45.745C104.219,47.088 104.791,48.083 105.936,48.73C107.08,49.377 108.274,49.7 109.518,49.7C110.612,49.7 111.669,49.551 112.689,49.253C113.709,48.954 114.617,48.531 115.413,47.984C116.209,47.437 116.843,46.74 117.316,45.894C117.789,45.049 118.025,44.054 118.025,42.909L118.025,40.521L115.264,40.521ZM171.595,56.417L160.849,56.417L160.849,51.491L160.7,51.491C160.302,52.188 159.792,52.884 159.17,53.581C158.548,54.277 157.79,54.899 156.894,55.446C155.999,55.994 154.979,56.441 153.834,56.79C152.69,57.138 151.446,57.312 150.103,57.312C147.267,57.312 144.966,56.877 143.2,56.006C141.434,55.136 140.066,53.929 139.096,52.387C138.126,50.845 137.479,49.029 137.156,46.939C136.832,44.85 136.671,42.586 136.671,40.148L136.671,20.149L147.864,20.149L147.864,37.91C147.864,38.954 147.902,40.036 147.976,41.156C148.051,42.275 148.275,43.307 148.648,44.253C149.021,45.198 149.593,45.969 150.364,46.566C151.135,47.163 152.242,47.462 153.685,47.462C155.128,47.462 156.297,47.2 157.193,46.678C158.088,46.156 158.772,45.459 159.245,44.589C159.717,43.718 160.028,42.735 160.178,41.641C160.327,40.546 160.401,39.402 160.401,38.208L160.401,20.149L171.595,20.149L171.595,56.417ZM218.897,56.417L208.599,56.417L208.599,51.641L208.449,51.641C208.002,52.287 207.417,52.947 206.696,53.618C205.974,54.29 205.129,54.899 204.158,55.446C203.188,55.994 202.119,56.441 200.949,56.79C199.78,57.138 198.574,57.312 197.33,57.312C194.644,57.312 192.206,56.852 190.017,55.932C187.828,55.011 185.95,53.718 184.383,52.051C182.816,50.384 181.609,48.407 180.763,46.118C179.918,43.83 179.495,41.317 179.495,38.581C179.495,36.044 179.88,33.619 180.651,31.305C181.423,28.992 182.517,26.94 183.935,25.149C185.353,23.358 187.082,21.927 189.121,20.858C191.161,19.788 193.475,19.253 196.062,19.253C198.4,19.253 200.576,19.614 202.591,20.335C204.606,21.057 206.26,22.288 207.554,24.029L207.703,24.029L207.703,0L218.897,0L218.897,56.417ZM208.599,38.283C208.599,35.546 207.815,33.333 206.248,31.641C204.681,29.95 202.479,29.104 199.644,29.104C196.808,29.104 194.606,29.95 193.039,31.641C191.472,33.333 190.689,35.546 190.689,38.283C190.689,41.019 191.472,43.233 193.039,44.924C194.606,46.616 196.808,47.462 199.644,47.462C202.479,47.462 204.681,46.616 206.248,44.924C207.815,43.233 208.599,41.019 208.599,38.283ZM229.408,49.999C229.408,49.054 229.582,48.158 229.931,47.312C230.279,46.467 230.764,45.733 231.386,45.111C232.008,44.489 232.742,44.004 233.587,43.656C234.433,43.307 235.329,43.133 236.274,43.133C237.219,43.133 238.115,43.307 238.96,43.656C239.806,44.004 240.54,44.489 241.162,45.111C241.784,45.733 242.269,46.467 242.617,47.312C242.965,48.158 243.139,49.054 243.139,49.999C243.139,50.944 242.965,51.84 242.617,52.685C242.269,53.531 241.784,54.265 241.162,54.887C240.54,55.509 239.806,55.994 238.96,56.342C238.115,56.69 237.219,56.864 236.274,56.864C235.329,56.864 234.433,56.69 233.587,56.342C232.742,55.994 232.008,55.509 231.386,54.887C230.764,54.265 230.279,53.531 229.931,52.685C229.582,51.84 229.408,50.944 229.408,49.999ZM252.755,20.149L263.949,20.149L263.949,56.417L252.755,56.417L252.755,20.149ZM251.86,8.731C251.86,6.94 252.494,5.41 253.763,4.142C255.031,2.873 256.561,2.239 258.352,2.239C260.143,2.239 261.673,2.873 262.942,4.142C264.21,5.41 264.845,6.94 264.845,8.731C264.845,10.522 264.21,12.052 262.942,13.321C261.673,14.589 260.143,15.224 258.352,15.224C256.561,15.224 255.031,14.589 253.763,13.321C252.494,12.052 251.86,10.522 251.86,8.731ZM271.998,38.283C271.998,35.397 272.52,32.785 273.565,30.447C274.61,28.109 276.04,26.106 277.856,24.44C279.672,22.773 281.811,21.492 284.274,20.597C286.736,19.701 289.361,19.253 292.147,19.253C294.933,19.253 297.557,19.701 300.02,20.597C302.482,21.492 304.622,22.773 306.437,24.44C308.253,26.106 309.684,28.109 310.728,30.447C311.773,32.785 312.296,35.397 312.296,38.283C312.296,41.168 311.773,43.78 310.728,46.118C309.684,48.457 308.253,50.459 306.437,52.126C304.622,53.792 302.482,55.073 300.02,55.969C297.557,56.864 294.933,57.312 292.147,57.312C289.361,57.312 286.736,56.864 284.274,55.969C281.811,55.073 279.672,53.792 277.856,52.126C276.04,50.459 274.61,48.457 273.565,46.118C272.52,43.78 271.998,41.168 271.998,38.283ZM283.192,38.283C283.192,41.019 283.975,43.233 285.542,44.924C287.11,46.616 289.311,47.462 292.147,47.462C294.983,47.462 297.184,46.616 298.751,44.924C300.318,43.233 301.102,41.019 301.102,38.283C301.102,35.546 300.318,33.333 298.751,31.641C297.184,29.95 294.983,29.104 292.147,29.104C289.311,29.104 287.11,29.95 285.542,31.641C283.975,33.333 283.192,35.546 283.192,38.283Z" style="fill:rgb(18,0,231);"/>
    </g>
    <g id="Rectangle-2" transform="matrix(1,0,0,1,399.119,53.3006)">
        <rect x="10.849" y="0" width="16.099" height="5.981" style="fill:rgb(18,0,231);"/>
    </g>
    <g id="Rectangle-21" transform="matrix(0.906308,0.422618,-0.422618,0.906308,408.288,48.1273)">
        <rect x="8.202" y="15.102" width="16.099" height="5.981" style="fill:rgb(18,0,231);"/>
    </g>
    <g id="Rectangle-22" transform="matrix(0.62932,0.777146,-0.777146,0.62932,425.35,58.4675)">
        <rect x="-0.35" y="27.091" width="16.099" height="5.981" style="fill:rgb(18,0,231);"/>
    </g>
</svg>
