<?xml version="1.0" encoding="utf-8"?>
<!-- Generator: Adobe Illustrator 17.0.0, SVG Export Plug-In . SVG Version: 6.00 Build 0)  -->
<!DOCTYPE svg PUBLIC "-//W3C//DTD SVG 1.1//EN" "http://www.w3.org/Graphics/SVG/1.1/DTD/svg11.dtd">
<svg version="1.1" id="Layer_1" xmlns="http://www.w3.org/2000/svg" xmlns:xlink="http://www.w3.org/1999/xlink" x="0px" y="0px"
	 width="2000px" height="2000px" viewBox="0 0 2000 2000" enable-background="new 0 0 2000 2000" xml:space="preserve">
<g id="relaud.io" transform="matrix(1,0,0,1,92.5,17.0317)">
	<path fill="#1200E7" d="M277.5,945.691h44.776v23.284h0.596c4.776-8.956,10.448-15.672,17.016-20.152
		c6.564-4.476,14.824-6.716,24.776-6.716c2.584,0,5.172,0.1,7.76,0.3c2.588,0.2,4.976,0.596,7.164,1.192v40.896
		c-3.184-0.996-6.32-1.74-9.404-2.24c-3.084-0.496-6.316-0.744-9.7-0.744c-8.556,0-15.324,1.192-20.3,3.58
		c-4.972,2.388-8.804,5.724-11.492,10c-2.684,4.28-4.428,9.404-5.224,15.372c-0.796,5.972-1.192,12.54-1.192,19.704v60.596H277.5
		V945.691z M536.256,1065.687c-7.164,9.156-16.216,16.22-27.164,21.192c-10.944,4.976-22.288,7.464-34.028,7.464
		c-11.144,0-21.64-1.792-31.492-5.372c-9.848-3.584-18.408-8.708-25.672-15.372c-7.26-6.668-12.984-14.676-17.16-24.032
		c-4.18-9.352-6.272-19.8-6.272-31.34c0-11.544,2.092-21.992,6.272-31.344c4.176-9.352,9.9-17.364,17.16-24.028
		c7.264-6.668,15.824-11.792,25.672-15.372c9.852-3.584,20.348-5.376,31.492-5.376c10.348,0,19.752,1.792,28.208,5.376
		c8.46,3.58,15.624,8.704,21.492,15.372c5.872,6.664,10.4,14.676,13.584,24.028c3.184,9.352,4.776,19.8,4.776,31.344v14.028h-103.88
		c1.792,8.556,5.672,15.372,11.644,20.448c5.968,5.076,13.332,7.612,22.088,7.612c7.364,0,13.58-1.644,18.656-4.924
		c5.076-3.284,9.5-7.516,13.284-12.688L536.256,1065.687z M498.348,1001.807c0.2-7.56-2.288-14.028-7.464-19.4
		c-5.172-5.376-11.84-8.06-20-8.06c-4.972,0-9.352,0.796-13.132,2.388c-3.78,1.592-7.016,3.632-9.7,6.12
		c-2.688,2.484-4.776,5.372-6.272,8.656c-1.492,3.284-2.336,6.716-2.536,10.296H498.348z M576.212,865.095h44.776v225.668h-44.776
		V865.095z M749.6,1072.551h-0.596c-4.976,7.764-11.592,13.336-19.852,16.716c-8.256,3.384-16.964,5.076-26.12,5.076
		c-6.764,0-13.28-0.944-19.548-2.836c-6.272-1.888-11.792-4.724-16.568-8.508c-4.776-3.78-8.556-8.456-11.344-14.028
		c-2.784-5.572-4.18-12.04-4.18-19.404c0-8.356,1.544-15.42,4.628-21.192c3.084-5.772,7.264-10.548,12.536-14.328
		c5.276-3.78,11.296-6.716,18.06-8.804c6.768-2.092,13.78-3.632,21.044-4.628c7.264-0.996,14.528-1.592,21.792-1.792
		c7.264-0.2,13.98-0.3,20.148-0.3c0-7.96-2.836-14.276-8.508-18.952s-12.388-7.016-20.148-7.016c-7.364,0-14.08,1.544-20.148,4.628
		c-6.072,3.084-11.492,7.312-16.268,12.684l-23.88-24.476c8.356-7.76,18.108-13.58,29.252-17.464
		c11.144-3.88,22.684-5.82,34.624-5.82c13.136,0,23.932,1.644,32.388,4.928c8.46,3.28,15.224,8.108,20.3,14.476
		c5.072,6.368,8.604,14.18,10.596,23.432c1.992,9.252,2.984,19.948,2.984,32.088v73.732H749.6V1072.551z M738.556,1027.179
		c-3.384,0-7.612,0.152-12.688,0.448c-5.072,0.3-9.948,1.144-14.624,2.54c-4.676,1.392-8.656,3.48-11.94,6.268
		c-3.284,2.784-4.928,6.664-4.928,11.64c0,5.372,2.288,9.352,6.868,11.94c4.576,2.588,9.352,3.88,14.328,3.88
		c4.376,0,8.604-0.596,12.684-1.788c4.08-1.196,7.712-2.888,10.896-5.076c3.184-2.188,5.72-4.976,7.612-8.36
		c1.892-3.38,2.836-7.36,2.836-11.94v-9.552H738.556z M963.88,1090.763h-42.984v-19.704H920.3c-1.592,2.788-3.632,5.572-6.12,8.36
		c-2.488,2.784-5.52,5.272-9.104,7.46c-3.58,2.192-7.66,3.98-12.24,5.376c-4.576,1.392-9.552,2.088-14.924,2.088
		c-11.344,0-20.548-1.74-27.612-5.224c-7.064-3.48-12.536-8.308-16.416-14.476c-3.88-6.168-6.468-13.432-7.76-21.792
		c-1.296-8.356-1.94-17.412-1.94-27.164v-79.996h44.772v71.044c0,4.176,0.152,8.504,0.448,12.984
		c0.3,4.476,1.196,8.604,2.688,12.388c1.492,3.78,3.78,6.864,6.864,9.252c3.084,2.388,7.512,3.584,13.284,3.584
		c5.772,0,10.448-1.048,14.032-3.136c3.58-2.088,6.316-4.876,8.208-8.356c1.888-3.484,3.132-7.416,3.732-11.792
		c0.596-4.38,0.892-8.956,0.892-13.732v-72.236h44.776V1090.763z M1153.088,1090.763h-41.192v-19.104h-0.6
		c-1.788,2.584-4.128,5.224-7.012,7.908c-2.888,2.688-6.268,5.124-10.152,7.312c-3.88,2.192-8.156,3.98-12.836,5.376
		c-4.676,1.392-9.5,2.088-14.476,2.088c-10.744,0-20.496-1.84-29.252-5.52c-8.756-3.684-16.268-8.856-22.536-15.524
		s-11.096-14.576-14.48-23.732c-3.38-9.152-5.072-19.204-5.072-30.148c0-10.148,1.54-19.848,4.624-29.104
		c3.088-9.252,7.464-17.46,13.136-24.624s12.588-12.888,20.744-17.164c8.16-4.28,17.416-6.42,27.764-6.42
		c9.352,0,18.056,1.444,26.116,4.328c8.06,2.888,14.676,7.812,19.852,14.776h0.596v-96.116h44.776V1090.763z M1111.896,1018.227
		c0-10.948-3.136-19.8-9.404-26.568c-6.268-6.764-15.076-10.148-26.416-10.148c-11.344,0-20.152,3.384-26.42,10.148
		c-6.268,6.768-9.4,15.62-9.4,26.568c0,10.944,3.132,19.8,9.4,26.564c6.268,6.768,15.076,10.152,26.42,10.152
		c11.34,0,20.148-3.384,26.416-10.152C1108.76,1038.027,1111.896,1029.171,1111.896,1018.227z M1195.132,1065.091
		c0-3.78,0.696-7.364,2.092-10.748c1.392-3.38,3.332-6.316,5.82-8.804c2.488-2.488,5.424-4.428,8.804-5.82
		c3.384-1.396,6.968-2.092,10.748-2.092s7.364,0.696,10.744,2.092c3.384,1.392,6.32,3.332,8.808,5.82
		c2.488,2.488,4.428,5.424,5.82,8.804c1.392,3.384,2.088,6.968,2.088,10.748c0,3.78-0.696,7.364-2.088,10.744
		c-1.392,3.384-3.332,6.32-5.82,8.808c-2.488,2.488-5.424,4.428-8.808,5.82c-3.38,1.392-6.964,2.088-10.744,2.088
		s-7.364-0.696-10.748-2.088c-3.38-1.392-6.316-3.332-8.804-5.82c-2.488-2.488-4.428-5.424-5.82-8.808
		C1195.828,1072.455,1195.132,1068.871,1195.132,1065.091z M1288.52,945.691h44.776v145.072h-44.776V945.691z M1284.94,900.019
		c0-7.164,2.536-13.284,7.612-18.356c5.072-5.076,11.192-7.612,18.356-7.612c7.164,0,13.284,2.536,18.36,7.612
		c5.072,5.072,7.612,11.192,7.612,18.356s-2.54,13.284-7.612,18.36c-5.076,5.072-11.196,7.612-18.36,7.612
		c-7.164,0-13.284-2.54-18.356-7.612C1287.476,913.303,1284.94,907.183,1284.94,900.019z M1365.492,1018.227
		c0-11.544,2.088-21.992,6.268-31.344c4.18-9.352,9.9-17.364,17.164-24.028c7.264-6.668,15.82-11.792,25.672-15.372
		c9.848-3.584,20.348-5.376,31.492-5.376s21.64,1.792,31.492,5.376c9.848,3.58,18.408,8.704,25.668,15.372
		c7.264,6.664,12.988,14.676,17.164,24.028c4.18,9.352,6.272,19.8,6.272,31.344c0,11.54-2.092,21.988-6.272,31.34
		c-4.176,9.356-9.9,17.364-17.164,24.032c-7.26,6.664-15.82,11.788-25.668,15.372c-9.852,3.58-20.348,5.372-31.492,5.372
		s-21.644-1.792-31.492-5.372c-9.852-3.584-18.408-8.708-25.672-15.372c-7.264-6.668-12.984-14.676-17.164-24.032
		C1367.58,1040.215,1365.492,1029.767,1365.492,1018.227z M1410.268,1018.227c0,10.944,3.132,19.8,9.4,26.564
		c6.272,6.768,15.076,10.152,26.42,10.152s20.148-3.384,26.416-10.152c6.268-6.764,9.404-15.62,9.404-26.564
		c0-10.948-3.136-19.8-9.404-26.568c-6.268-6.764-15.072-10.148-26.416-10.148s-20.148,3.384-26.42,10.148
		C1413.4,998.427,1410.268,1007.279,1410.268,1018.227z"/>
</g>
<g id="Rectangle-2" transform="matrix(1,0,0,1,399.119,53.3006)">
	<rect x="1240.753" y="973.902" fill="#1200E7" width="64.396" height="23.924"/>
</g>
<g id="Rectangle-21" transform="matrix(0.906308,0.422618,-0.422618,0.906308,408.288,48.1273)">
	<rect x="1547.941" y="411.348" fill="#1200E7" width="64.396" height="23.924"/>
</g>
<g id="Rectangle-22" transform="matrix(0.62932,0.777146,-0.777146,0.62932,425.35,58.4675)">
	<rect x="1570.555" y="-260.663" fill="#1200E7" width="64.396" height="23.924"/>
</g>
<text transform="matrix(1 0 0 1 593.8765 1180.0785)" fill="#1200E7" font-family="'Montserrat-Regular'" font-size="45.2126">powerful, quote-based video search</text>
</svg>
